<svg xmlns="http://www.w3.org/2000/svg" viewBox="0 0 900 650">
  <defs>
    <linearGradient id="bgc2" x1="0" y1="0" x2="1" y2="1">
      <stop offset="0" stop-color="#FDEAE5"/>
      <stop offset="1" stop-color="#FBD4CB"/>
    </linearGradient>
  </defs>
  <rect width="900" height="650" fill="url(#bgc2)"/>
  <g>
    <ellipse cx="470" cy="380" rx="260" ry="90" fill="#E8412C"/>
    <ellipse cx="470" cy="380" rx="260" ry="90" fill="none" stroke="#B92E1D" stroke-width="6"/>
    <g fill="#F26852">
      <circle cx="330" cy="345" r="14"/><circle cx="390" cy="335" r="14"/><circle cx="450" cy="330" r="14"/><circle cx="510" cy="335" r="14"/><circle cx="570" cy="345" r="14"/><circle cx="620" cy="360" r="14"/>
    </g>
    <path d="M470 290 L560 300 L470 460 L380 300 Z" fill="#F4A227"/>
    <circle cx="470" cy="360" r="34" fill="#2F8FE0"/>
    <circle cx="470" cy="360" r="34" fill="none" stroke="#1E6FB8" stroke-width="6"/>
    <path d="M210 380 L120 340 L150 400 L120 460 Z" fill="#B92E1D"/>
    <path d="M730 380 L820 340 L790 400 L820 460 Z" fill="#B92E1D"/>
    <path d="M470 460 L440 560 L500 560 Z" fill="#F4A227"/>
  </g>
  <g fill="#FBD4CB" opacity="0.8">
    <circle cx="120" cy="120" r="4"/><circle cx="700" cy="90" r="5"/><circle cx="800" cy="200" r="3"/><circle cx="90" cy="500" r="4"/><circle cx="820" cy="520" r="4"/>
  </g>
  <text x="450" y="600" text-anchor="middle" font-family="Nunito, 'Segoe UI', sans-serif" font-weight="800" font-size="34" fill="#8A2E1D">Lego Spaceship</text>
  <g transform="translate(140,60) rotate(-8)">
    <text text-anchor="middle" font-family="Nunito, 'Segoe UI', sans-serif" font-weight="800" font-size="20" fill="#B92E1D" opacity="0.55" letter-spacing="2">PLACEHOLDER ART</text>
  </g>
</svg>
