<svg xmlns="http://www.w3.org/2000/svg" viewBox="0 0 900 600">
  <defs>
    <linearGradient id="bgc6" x1="0" y1="0" x2="1" y2="0">
      <stop offset="0" stop-color="#FFF2DE"/>
      <stop offset="1" stop-color="#FCE0AE"/>
    </linearGradient>
  </defs>
  <rect width="900" height="600" fill="url(#bgc6)"/>
  <g transform="rotate(-18 450 300)">
    <path d="M450 90 L520 320 L450 380 L380 320 Z" fill="#F4A227" stroke="#C9821C" stroke-width="6"/>
    <path d="M450 90 L490 320 L450 340 Z" fill="#E8A93E"/>
    <circle cx="450" cy="220" r="26" fill="#FFF6E6" stroke="#C9821C" stroke-width="4"/>
    <path d="M380 320 L330 400 L390 370 Z" fill="#E8412C"/>
    <path d="M520 320 L570 400 L510 370 Z" fill="#E8412C"/>
    <path d="M420 370 L390 460 L450 420 L510 460 L480 370 Z" fill="#2F8FE0"/>
  </g>
  <g fill="#F4A227" opacity="0.7">
    <circle cx="200" cy="150" r="10"/>
    <circle cx="700" cy="200" r="8"/>
    <circle cx="230" cy="480" r="7"/>
    <circle cx="740" cy="470" r="9"/>
  </g>
  <text x="450" y="560" text-anchor="middle" font-family="Nunito, 'Segoe UI', sans-serif" font-weight="800" font-size="34" fill="#8A5A1C">Paper Rocket Collage</text>
  <g transform="translate(140,60) rotate(-8)">
    <text text-anchor="middle" font-family="Nunito, 'Segoe UI', sans-serif" font-weight="800" font-size="18" fill="#C9821C" opacity="0.6" letter-spacing="2">PLACEHOLDER ART</text>
  </g>
</svg>
