<svg xmlns="http://www.w3.org/2000/svg" viewBox="0 0 900 700">
  <defs>
    <linearGradient id="bgc7" x1="0" y1="0" x2="1" y2="1">
      <stop offset="0" stop-color="#EAF4FF"/>
      <stop offset="1" stop-color="#CFE7FF"/>
    </linearGradient>
  </defs>
  <rect width="900" height="700" fill="url(#bgc7)"/>
  <g opacity="0.9">
    <circle cx="220" cy="220" r="70" fill="#2F8FE0"/>
    <circle cx="380" cy="150" r="46" fill="#E8412C"/>
    <circle cx="560" cy="230" r="80" fill="#F4A227"/>
    <circle cx="700" cy="140" r="40" fill="#3FBF6F"/>
    <circle cx="300" cy="400" r="55" fill="#F4A227"/>
    <circle cx="500" cy="450" r="90" fill="#2F8FE0"/>
    <circle cx="680" cy="420" r="50" fill="#E8412C"/>
    <circle cx="150" cy="500" r="40" fill="#9B5DE0"/>
    <circle cx="760" cy="560" r="35" fill="#9B5DE0"/>
  </g>
  <g stroke="#2F8FE0" stroke-width="6" fill="none" opacity="0.8">
    <path d="M120 340 q40 -40 90 0"/>
    <path d="M620 300 q40 40 90 0"/>
  </g>
  <g fill="#1E6FB8">
    <circle cx="260" cy="330" r="6"/><circle cx="440" cy="260" r="5"/><circle cx="620" cy="360" r="6"/><circle cx="200" cy="600" r="5"/><circle cx="800" cy="300" r="5"/>
  </g>
  <text x="450" y="650" text-anchor="middle" font-family="Nunito, 'Segoe UI', sans-serif" font-weight="800" font-size="36" fill="#1E5C99">Rainbow Splatter Painting</text>
  <g transform="translate(140,60) rotate(-8)">
    <text text-anchor="middle" font-family="Nunito, 'Segoe UI', sans-serif" font-weight="800" font-size="20" fill="#1E6FB8" opacity="0.55" letter-spacing="2">PLACEHOLDER ART</text>
  </g>
</svg>
